<?xml version="1.0" encoding="utf-8"?>
<!-- Generator: Adobe Illustrator 18.0.0, SVG Export Plug-In . SVG Version: 6.00 Build 0)  -->
<!DOCTYPE svg PUBLIC "-//W3C//DTD SVG 1.1//EN" "http://www.w3.org/Graphics/SVG/1.1/DTD/svg11.dtd">
<svg version="1.1" id="Layer_1" xmlns="http://www.w3.org/2000/svg" xmlns:xlink="http://www.w3.org/1999/xlink" x="0px" y="0px"
	 viewBox="563 591.5 74 17" enable-background="new 563 591.5 74 17" xml:space="preserve">
<g opacity="0.5">
	<g>
		<g>
			<g>
				<g enable-background="new    ">
					<g>
						<g>
							<path fill="#8D8D8D" d="M578.9,594.1h-2.5v-2.5h2.5V594.1z M578.9,608.1h-2.5v-12.3h2.5V608.1z"/>
						</g>
						<g>
							<g>
								<path fill="#8D8D8D" d="M593.7,595.8l-3.5,10.6c-0.6,1.7-1.7,1.9-2.6,1.9c-1.3,0-2.1-0.6-2.5-1.9l-3-8.8h-1.2v-1.8h3l3,9.9
									c0.1,0.4,0.2,0.7,0.6,0.7s0.5-0.3,0.6-0.7l3.1-9.9H593.7z"/>
								<path fill="#8D8D8D" d="M600,595.8c3.3,0,5.6,2.2,5.6,5.3v1.9c0,3.1-2.3,5.3-5.6,5.3s-5.6-2.2-5.6-5.3v-1.9
									C594.5,598,596.7,595.8,600,595.8 M600,606.4c2,0,3.2-1.5,3.2-3.3v-1.9c0-1.8-1.2-3.3-3.2-3.3c-2.1,0-3.2,1.5-3.2,3.3v1.9
									C596.8,604.9,598,606.4,600,606.4"/>
								<path fill="#8D8D8D" d="M626.1,596.2c-1.3-0.3-3.2-0.6-4.7-0.6c-3.3,0-5.4,2.1-5.4,5.5v1.3c0,3.4,2.1,5.5,5.4,5.5
									c0.1,0,0.7,0,0.9,0v-2c-0.1,0-0.9,0-0.9,0c-1.8,0-3-1.4-3-3.5v-1.2c0-2.1,1.2-3.5,3-3.5c0.8,0,2.1,0.1,2.5,0.2h0.1v10.3h2.5
									v-11.5C626.5,596.4,626.5,596.4,626.1,596.2"/>
								<rect x="629" y="591.6" fill="#8D8D8D" width="2.5" height="16.5"/>
								<path fill="#8D8D8D" d="M610.2,593.2v2.6h4.2v2h-4.1v7.2c0,1.1,0.7,1.1,1.7,1.1h2.4v2h-3.2c-2.4,0-3.5-1-3.5-3.1v-11.4
									L610.2,593.2z"/>
								<path fill="#8D8D8D" d="M567.5,591.6H563v16.5h2.8v-14h1.4c0.3,0,0.6,0,0.9,0c2.3,0,3.4,0.7,3.4,2.5c0,0.1,0,0.1,0,0.2
									c0,1.6-0.9,2.7-3.4,2.7c-0.2,0-0.6-0.1-0.6-0.1v2.3c0,0,0.4,0,0.6,0c3.6,0,6.1-1.4,6.1-4.9c0-0.1,0-0.1,0-0.2
									C574.3,593,571.6,591.6,567.5,591.6z"/>
							</g>
						</g>
					</g>
				</g>
			</g>
		</g>
		<g>
			<path fill="#8D8D8D" d="M633.8,606.3v1.8h-0.2v-1.8h-0.8v-0.2h1.8v0.2H633.8L633.8,606.3z M636.8,608.1l-0.1-1.7l0,0l-0.7,1.7
				h-0.2l-0.6-1.7l0,0l-0.1,1.7h-0.2l0.1-2h0.3l0.6,1.8l0,0l0.7-1.8h0.3l0.1,2H636.8L636.8,608.1z"/>
		</g>
	</g>
</g>
</svg>
